<svg width="70" height="70" viewBox="0 0 70 70" fill="none" xmlns="http://www.w3.org/2000/svg">
<circle cx="35" cy="35" r="35" fill="#309E6C"/>
<path fill-rule="evenodd" clip-rule="evenodd" d="M35.9937 22.8825C40.2667 22.8825 40.7683 22.9016 42.4571 22.9778C44.019 23.0476 44.8635 23.3079 45.4286 23.5302C46.1778 23.8222 46.7111 24.1651 47.2698 24.7238C47.8286 25.2825 48.1778 25.8159 48.4635 26.5651C48.6794 27.1302 48.946 27.9746 49.0159 29.5365C49.0921 31.2254 49.1111 31.727 49.1111 36C49.1111 40.273 49.0921 40.7746 49.0159 42.4635C48.946 44.0254 48.6857 44.8698 48.4635 45.4349C48.1714 46.1841 47.8286 46.7175 47.2698 47.2762C46.7111 47.8349 46.1778 48.1841 45.4286 48.4698C44.8635 48.6857 44.019 48.9524 42.4571 49.0222C40.7683 49.0984 40.2667 49.1175 35.9937 49.1175C31.7206 49.1175 31.219 49.0984 29.5302 49.0222C27.9683 48.9524 27.1238 48.6921 26.5587 48.4698C25.8095 48.1778 25.2762 47.8349 24.7175 47.2762C24.1587 46.7175 23.8095 46.1841 23.5238 45.4349C23.3079 44.8698 23.0413 44.0254 22.9714 42.4635C22.8952 40.7746 22.8762 40.273 22.8762 36C22.8762 31.727 22.8952 31.2254 22.9714 29.5365C23.0413 27.9746 23.3016 27.1302 23.5238 26.5651C23.8159 25.8159 24.1587 25.2825 24.7175 24.7238C25.2762 24.1651 25.8095 23.8159 26.5587 23.5302C27.1238 23.3143 27.9683 23.0476 29.5302 22.9778C31.219 22.8952 31.7206 22.8825 35.9937 22.8825ZM35.9937 20C31.6508 20 31.1048 20.019 29.3968 20.0952C27.6952 20.1714 26.5333 20.4444 25.5175 20.8381C24.4635 21.2444 23.5746 21.7968 22.6857 22.6857C21.7968 23.5746 21.2508 24.4698 20.8381 25.5175C20.4444 26.5333 20.1714 27.6952 20.0952 29.4032C20.019 31.1048 20 31.6508 20 35.9937C20 40.3365 20.019 40.8825 20.0952 42.5905C20.1714 44.2921 20.4444 45.454 20.8381 46.4762C21.2444 47.5302 21.7968 48.4191 22.6857 49.3079C23.5746 50.1968 24.4698 50.7429 25.5175 51.1556C26.5333 51.5492 27.6952 51.8222 29.4032 51.8984C31.1111 51.9746 31.6508 51.9937 36 51.9937C40.3492 51.9937 40.8889 51.9746 42.5968 51.8984C44.2984 51.8222 45.4603 51.5492 46.4825 51.1556C47.5365 50.7492 48.4254 50.1968 49.3143 49.3079C50.2032 48.4191 50.7492 47.5238 51.1619 46.4762C51.5556 45.4603 51.8286 44.2984 51.9048 42.5905C51.981 40.8825 52 40.3429 52 35.9937C52 31.6444 51.981 31.1048 51.9048 29.3968C51.8286 27.6952 51.5556 26.5333 51.1619 25.5111C50.7556 24.4571 50.2032 23.5683 49.3143 22.6794C48.4254 21.7905 47.5302 21.2444 46.4825 20.8317C45.4667 20.4381 44.3048 20.1651 42.5968 20.0889C40.8825 20.019 40.3365 20 35.9937 20ZM35.9936 27.7778C31.4603 27.7778 27.7778 31.454 27.7778 35.9937C27.7778 40.5333 31.4603 44.2095 35.9936 44.2095C40.527 44.2095 44.2095 40.527 44.2095 35.9937C44.2095 31.4603 40.527 27.7778 35.9936 27.7778ZM35.9936 41.327C33.0476 41.327 30.6603 38.9397 30.6603 35.9937C30.6603 33.0476 33.0476 30.6603 35.9936 30.6603C38.9397 30.6603 41.327 33.0476 41.327 35.9937C41.327 38.9397 38.9397 41.327 35.9936 41.327ZM46.4511 27.4541C46.4511 28.5131 45.5927 29.3715 44.5337 29.3715C43.4747 29.3715 42.6162 28.5131 42.6162 27.4541C42.6162 26.3951 43.4747 25.5366 44.5337 25.5366C45.5927 25.5366 46.4511 26.3951 46.4511 27.4541Z" fill="white"/>
</svg>
