<svg width="32" height="32" viewBox="0 0 32 32" fill="none" xmlns="http://www.w3.org/2000/svg">
<path fill-rule="evenodd" clip-rule="evenodd" d="M15.9937 2.88254C20.2667 2.88254 20.7683 2.90159 22.4571 2.97778C24.019 3.04762 24.8635 3.30794 25.4286 3.53016C26.1778 3.82222 26.7111 4.16508 27.2698 4.72381C27.8286 5.28254 28.1778 5.81587 28.4635 6.56508C28.6794 7.13016 28.946 7.9746 29.0159 9.53651C29.0921 11.2254 29.1111 11.727 29.1111 16C29.1111 20.273 29.0921 20.7746 29.0159 22.4635C28.946 24.0254 28.6857 24.8698 28.4635 25.4349C28.1714 26.1841 27.8286 26.7175 27.2698 27.2762C26.7111 27.8349 26.1778 28.1841 25.4286 28.4698C24.8635 28.6857 24.019 28.9524 22.4571 29.0222C20.7683 29.0984 20.2667 29.1175 15.9937 29.1175C11.7206 29.1175 11.219 29.0984 9.53016 29.0222C7.96825 28.9524 7.12381 28.6921 6.55873 28.4698C5.80952 28.1778 5.27619 27.8349 4.71746 27.2762C4.15873 26.7175 3.80952 26.1841 3.52381 25.4349C3.30794 24.8698 3.04127 24.0254 2.97143 22.4635C2.89524 20.7746 2.87619 20.273 2.87619 16C2.87619 11.727 2.89524 11.2254 2.97143 9.53651C3.04127 7.9746 3.30159 7.13016 3.52381 6.56508C3.81587 5.81587 4.15873 5.28254 4.71746 4.72381C5.27619 4.16508 5.80952 3.81587 6.55873 3.53016C7.12381 3.31429 7.96825 3.04762 9.53016 2.97778C11.219 2.89524 11.7206 2.88254 15.9937 2.88254ZM15.9937 0C11.6508 0 11.1048 0.0190476 9.39683 0.0952381C7.69524 0.171429 6.53333 0.444444 5.51746 0.838095C4.46349 1.24444 3.5746 1.79683 2.68571 2.68571C1.79683 3.5746 1.25079 4.46984 0.838095 5.51746C0.444444 6.53333 0.171429 7.69524 0.0952381 9.40317C0.0190476 11.1048 0 11.6508 0 15.9937C0 20.3365 0.0190476 20.8825 0.0952381 22.5905C0.171429 24.2921 0.444444 25.454 0.838095 26.4762C1.24444 27.5302 1.79683 28.4191 2.68571 29.3079C3.5746 30.1968 4.46984 30.7429 5.51746 31.1556C6.53333 31.5492 7.69524 31.8222 9.40317 31.8984C11.1111 31.9746 11.6508 31.9937 16 31.9937C20.3492 31.9937 20.8889 31.9746 22.5968 31.8984C24.2984 31.8222 25.4603 31.5492 26.4825 31.1556C27.5365 30.7492 28.4254 30.1968 29.3143 29.3079C30.2032 28.4191 30.7492 27.5238 31.1619 26.4762C31.5556 25.4603 31.8286 24.2984 31.9048 22.5905C31.981 20.8825 32 20.3429 32 15.9937C32 11.6444 31.981 11.1048 31.9048 9.39683C31.8286 7.69524 31.5556 6.53333 31.1619 5.51111C30.7556 4.45714 30.2032 3.56825 29.3143 2.67937C28.4254 1.79048 27.5302 1.24444 26.4825 0.831746C25.4667 0.438095 24.3048 0.165079 22.5968 0.0888889C20.8825 0.0190476 20.3365 0 15.9937 0ZM15.9936 7.77779C11.4603 7.77779 7.77775 11.454 7.77775 15.9937C7.77775 20.5333 11.4603 24.2095 15.9936 24.2095C20.527 24.2095 24.2095 20.527 24.2095 15.9937C24.2095 11.4603 20.527 7.77779 15.9936 7.77779ZM15.9936 21.327C13.0476 21.327 10.6603 18.9397 10.6603 15.9937C10.6603 13.0476 13.0476 10.6603 15.9936 10.6603C18.9397 10.6603 21.327 13.0476 21.327 15.9937C21.327 18.9397 18.9397 21.327 15.9936 21.327ZM26.4509 7.45396C26.4509 8.51294 25.5924 9.37142 24.5334 9.37142C23.4744 9.37142 22.616 8.51294 22.616 7.45396C22.616 6.39498 23.4744 5.5365 24.5334 5.5365C25.5924 5.5365 26.4509 6.39498 26.4509 7.45396Z" fill="#068A4F"/>
</svg>
