<svg width="70" height="70" viewBox="0 0 70 70" fill="none" xmlns="http://www.w3.org/2000/svg">
<circle cx="35" cy="35" r="35" fill="#309E6C"/>
<path fill-rule="evenodd" clip-rule="evenodd" d="M47.4444 51H22.5556C20.5919 51 19 49.4081 19 47.4444V22.5556C19 20.5919 20.5919 19 22.5556 19H47.4444C49.4081 19 51 20.5919 51 22.5556V47.4444C51 49.4081 49.4081 51 47.4444 51ZM41.8068 46.5554H46.5554V36.8004C46.5554 32.673 44.2157 30.6773 40.9477 30.6773C37.6781 30.6773 36.3021 33.2234 36.3021 33.2234V31.148H31.7258V46.5554H36.3021V38.4675C36.3021 36.3004 37.2997 35.0108 39.2091 35.0108C40.9642 35.0108 41.8068 36.25 41.8068 38.4675V46.5554ZM23.4443 26.2875C23.4443 27.8575 24.7075 29.1306 26.2663 29.1306C27.8251 29.1306 29.0874 27.8575 29.0874 26.2875C29.0874 24.7174 27.8251 23.4443 26.2663 23.4443C24.7075 23.4443 23.4443 24.7174 23.4443 26.2875ZM28.6752 46.5554H23.9032V31.148H28.6752V46.5554Z" fill="white"/>
</svg>
