<svg width="32" height="32" viewBox="0 0 32 32" fill="none" xmlns="http://www.w3.org/2000/svg">
<path fill-rule="evenodd" clip-rule="evenodd" d="M28.4444 32H3.55556C1.59188 32 0 30.4081 0 28.4444V3.55556C0 1.59188 1.59188 0 3.55556 0H28.4444C30.4081 0 32 1.59188 32 3.55556V28.4444C32 30.4081 30.4081 32 28.4444 32ZM22.8068 27.5556H27.5554V17.8006C27.5554 13.6731 25.2157 11.6774 21.9477 11.6774C18.6781 11.6774 17.3021 14.2235 17.3021 14.2235V12.1482H12.7258V27.5556H17.3021V19.4676C17.3021 17.3005 18.2997 16.0109 20.2091 16.0109C21.9642 16.0109 22.8068 17.2501 22.8068 19.4676V27.5556ZM4.44434 7.28757C4.44434 8.85764 5.70747 10.1307 7.26627 10.1307C8.82506 10.1307 10.0874 8.85764 10.0874 7.28757C10.0874 5.71751 8.82506 4.44446 7.26627 4.44446C5.70747 4.44446 4.44434 5.71751 4.44434 7.28757ZM9.67518 27.5556H4.90325V12.1482H9.67518V27.5556Z" fill="#068A4F"/>
</svg>
