<svg width="33" height="33" viewBox="0 0 33 33" fill="none" xmlns="http://www.w3.org/2000/svg">
<path d="M16.4 0C7.3 0 0 7.4 0 16.5C0 25.6 7.4 33 16.4 33C25.4 33 32.8 25.6 32.8 16.5C32.8 7.4 25.5 0 16.4 0ZM25.5 14.5C25.3 14.5 25.1 14.5 25 14.5C23.1 14.5 21.3 13.5 20.2 11.9V20.6C20.2 24.2 17.3 27.1 13.7 27.1C10.1 27.1 7.2 24.2 7.2 20.6C7.2 17 10.1 14.1 13.7 14.1C13.8 14.1 14 14.1 14.1 14.1V17.3C14 17.3 13.8 17.3 13.7 17.3C11.9 17.3 10.4 18.8 10.4 20.6C10.4 22.4 11.9 23.9 13.7 23.9C15.5 23.9 17.1 22.5 17.1 20.6V5.8H20.1C20.4 8.5 22.6 10.7 25.3 10.9V14.5H25.5Z" fill="#068A4F"/>
</svg>
