<svg width="70" height="70" viewBox="0 0 70 70" fill="none" xmlns="http://www.w3.org/2000/svg">
<circle cx="35" cy="35" r="35" fill="#309E6C"/>
<path d="M34.4 18C25.3 18 18 25.4 18 34.5C18 43.6 25.4 51 34.4 51C43.4 51 50.8 43.6 50.8 34.5C50.8 25.4 43.5 18 34.4 18ZM43.5 32.5C43.3 32.5 43.1 32.5 43 32.5C41.1 32.5 39.3 31.5 38.2 29.9V38.6C38.2 42.2 35.3 45.1 31.7 45.1C28.1 45.1 25.2 42.2 25.2 38.6C25.2 35 28.1 32.1 31.7 32.1C31.8 32.1 32 32.1 32.1 32.1V35.3C32 35.3 31.8 35.3 31.7 35.3C29.9 35.3 28.4 36.8 28.4 38.6C28.4 40.4 29.9 41.9 31.7 41.9C33.5 41.9 35.1 40.5 35.1 38.6V23.8H38.1C38.4 26.5 40.6 28.7 43.3 28.9V32.5H43.5Z" fill="white"/>
</svg>
