<svg width="70" height="70" viewBox="0 0 70 70" fill="none" xmlns="http://www.w3.org/2000/svg">
<circle cx="35" cy="35" r="35" fill="#309E6C"/>
<path fill-rule="evenodd" clip-rule="evenodd" d="M30.064 47.931C42.1392 47.931 48.744 37.9532 48.744 29.3016C48.744 29.0175 48.744 28.7356 48.7248 28.4548C50.0096 27.5293 51.1184 26.3802 52 25.0654C50.8032 25.5952 49.5312 25.9426 48.2304 26.0958C49.6 25.2772 50.6256 23.9912 51.1168 22.4737C49.8272 23.2364 48.4176 23.7747 46.9472 24.0635C44.4608 21.4275 40.3024 21.2998 37.6576 23.7794C35.9536 25.3783 35.2288 27.7621 35.7584 30.036C30.48 29.7711 25.5616 27.2851 22.2272 23.1954C20.4848 26.1873 21.376 30.0133 24.2608 31.9344C23.216 31.9041 22.1936 31.6236 21.28 31.1162V31.1993C21.2816 34.3156 23.4848 36.9989 26.5472 37.6164C25.5808 37.8797 24.5664 37.9179 23.584 37.728C24.4432 40.3959 26.9088 42.2233 29.7168 42.276C27.392 44.0982 24.52 45.0877 21.5632 45.0845C21.0416 45.0829 20.52 45.0525 20 44.9903C23.0032 46.9115 26.496 47.9311 30.064 47.9263" fill="white"/>
</svg>
