<svg width="32" height="26" viewBox="0 0 32 26" fill="none" xmlns="http://www.w3.org/2000/svg">
<path fill-rule="evenodd" clip-rule="evenodd" d="M10.064 25.931C22.1392 25.931 28.744 15.9532 28.744 7.30157C28.744 7.01754 28.744 6.73565 28.7248 6.45481C30.0096 5.52932 31.1184 4.38022 32 3.06541C30.8032 3.59517 29.5312 3.94259 28.2304 4.09576C29.6 3.27719 30.6256 1.99116 31.1168 0.473694C29.8272 1.23642 28.4176 1.77471 26.9472 2.06354C24.4608 -0.572496 20.3024 -0.700213 17.6576 1.77944C15.9536 3.37829 15.2288 5.76215 15.7584 8.03595C10.48 7.77108 5.5616 5.28508 2.2272 1.19542C0.4848 4.18726 1.376 8.01326 4.2608 9.93443C3.216 9.90411 2.1936 9.62358 1.28 9.11616V9.19926C1.2816 12.3156 3.4848 14.9989 6.5472 15.6164C5.5808 15.8797 4.5664 15.9179 3.584 15.728C4.4432 18.3959 6.9088 20.2233 9.7168 20.276C7.392 22.0982 4.52 23.0877 1.5632 23.0845C1.0416 23.0829 0.52 23.0525 0 22.9903C3.0032 24.9115 6.496 25.9311 10.064 25.9263" fill="#068A4F"/>
</svg>
