<svg width="70" height="70" viewBox="0 0 70 70" fill="none" xmlns="http://www.w3.org/2000/svg">
<circle cx="35" cy="35" r="35" fill="#309E6C"/>
<path fill-rule="evenodd" clip-rule="evenodd" d="M31.7815 39.3378V30.3589C34.969 31.8588 37.4377 33.3077 40.3575 34.8698C37.9493 36.2054 34.969 37.7039 31.7815 39.3378ZM49.5456 25.8933C48.9958 25.1688 48.0586 24.6049 47.0609 24.4183C44.1284 23.8614 25.8336 23.8598 22.9026 24.4183C22.1026 24.5682 21.3901 24.9308 20.7781 25.494C18.1994 27.8875 19.0075 40.7227 19.629 42.8018C19.8904 43.7018 20.2283 44.3508 20.6538 44.7768C21.2021 45.3401 21.9527 45.7279 22.815 45.9018C25.2295 46.4013 37.6689 46.6805 47.0099 45.9768C47.8706 45.8269 48.6324 45.4265 49.2332 44.8393C51.6175 42.4555 51.4549 28.8994 49.5456 25.8933Z" fill="white"/>
</svg>
